<mxfile host="Electron" modified="2023-07-27T19:03:38.417Z" agent="Mozilla/5.0 (Windows NT 10.0; Win64; x64) AppleWebKit/537.36 (KHTML, like Gecko) draw.io/21.5.0 Chrome/112.0.5615.204 Electron/24.5.1 Safari/537.36" etag="9JvFx6ZmRjbrUxd3o-YP" version="21.5.0" type="device">
  <diagram name="Page-1" id="-WAL0eyFb-DVaDpkZyCc">
    <mxGraphModel dx="1034" dy="605" grid="1" gridSize="10" guides="1" tooltips="1" connect="1" arrows="1" fold="1" page="1" pageScale="1" pageWidth="827" pageHeight="1169" math="0" shadow="0">
      <root>
        <mxCell id="0" />
        <mxCell id="1" parent="0" />
        <mxCell id="KJxX4XtAKlCCp9O-syS1-2" value="" style="rounded=0;whiteSpace=wrap;html=1;fillColor=#d5e8d4;strokeColor=#82b366;" parent="1" vertex="1">
          <mxGeometry x="170" y="140" width="120" height="60" as="geometry" />
        </mxCell>
        <mxCell id="KJxX4XtAKlCCp9O-syS1-3" value="NodeJS&lt;br&gt;V8" style="ellipse;whiteSpace=wrap;html=1;fillColor=#dae8fc;strokeColor=#6c8ebf;" parent="1" vertex="1">
          <mxGeometry x="354" y="280" width="120" height="80" as="geometry" />
        </mxCell>
        <mxCell id="KJxX4XtAKlCCp9O-syS1-5" value="Browser&lt;br&gt;V8" style="text;html=1;strokeColor=none;fillColor=none;align=center;verticalAlign=middle;whiteSpace=wrap;rounded=0;" parent="1" vertex="1">
          <mxGeometry x="200" y="155" width="60" height="30" as="geometry" />
        </mxCell>
        <mxCell id="KJxX4XtAKlCCp9O-syS1-6" value="&amp;nbsp;&lt;b style=&quot;color: rgb(32, 33, 34); font-family: sans-serif; font-size: 14px; text-align: start; background-color: rgb(255, 255, 255);&quot;&gt;read–eval–print loop&lt;/b&gt;&lt;span style=&quot;color: rgb(32, 33, 34); font-family: sans-serif; font-size: 14px; text-align: start; background-color: rgb(255, 255, 255);&quot;&gt;&amp;nbsp;(&lt;/span&gt;&lt;b style=&quot;color: rgb(32, 33, 34); font-family: sans-serif; font-size: 14px; text-align: start; background-color: rgb(255, 255, 255);&quot;&gt;REPL&lt;/b&gt;&lt;span style=&quot;color: rgb(32, 33, 34); font-family: sans-serif; font-size: 14px; text-align: start; background-color: rgb(255, 255, 255);&quot;&gt;)&lt;/span&gt;" style="text;html=1;strokeColor=none;fillColor=none;align=center;verticalAlign=middle;whiteSpace=wrap;rounded=0;" parent="1" vertex="1">
          <mxGeometry x="440" y="240" width="230" height="30" as="geometry" />
        </mxCell>
        <mxCell id="KJxX4XtAKlCCp9O-syS1-7" value="Repertoire&lt;br&gt;Tutos&lt;br&gt;exos&lt;br&gt;link externes" style="rounded=0;whiteSpace=wrap;html=1;fillColor=#f8cecc;strokeColor=#b85450;" parent="1" vertex="1">
          <mxGeometry x="110" y="310" width="120" height="60" as="geometry" />
        </mxCell>
        <mxCell id="KJxX4XtAKlCCp9O-syS1-8" value="Chromium" style="text;html=1;strokeColor=none;fillColor=none;align=center;verticalAlign=middle;whiteSpace=wrap;rounded=0;" parent="1" vertex="1">
          <mxGeometry x="200" y="110" width="100" height="30" as="geometry" />
        </mxCell>
        <mxCell id="KJxX4XtAKlCCp9O-syS1-9" value="&lt;b&gt;CLI&lt;/b&gt;" style="text;html=1;strokeColor=#d6b656;fillColor=#fff2cc;align=center;verticalAlign=middle;whiteSpace=wrap;rounded=0;" parent="1" vertex="1">
          <mxGeometry x="525" y="300" width="60" height="30" as="geometry" />
        </mxCell>
        <mxCell id="KJxX4XtAKlCCp9O-syS1-11" value="Console" style="rounded=0;whiteSpace=wrap;html=1;" parent="1" vertex="1">
          <mxGeometry x="310" y="150" width="80" height="40" as="geometry" />
        </mxCell>
        <mxCell id="KJxX4XtAKlCCp9O-syS1-12" value="&lt;b&gt;Re&lt;span style=&quot;border-color: var(--border-color); color: rgb(32, 33, 34); font-family: sans-serif; font-size: 14px; text-align: start; background-color: rgb(255, 255, 255);&quot;&gt;a&lt;/span&gt;ct&lt;/b&gt;" style="text;html=1;strokeColor=none;fillColor=none;align=center;verticalAlign=middle;whiteSpace=wrap;rounded=0;" parent="1" vertex="1">
          <mxGeometry x="100" y="270" width="100" height="30" as="geometry" />
        </mxCell>
        <mxCell id="LXi4oykiWdBbcrS9zuZF-2" value="D" style="rounded=0;whiteSpace=wrap;html=1;fillColor=#dae8fc;strokeColor=#6c8ebf;" vertex="1" parent="1">
          <mxGeometry x="380" y="490" width="40" height="60" as="geometry" />
        </mxCell>
        <mxCell id="LXi4oykiWdBbcrS9zuZF-3" value="P" style="rounded=0;whiteSpace=wrap;html=1;fillColor=#dae8fc;strokeColor=#6c8ebf;" vertex="1" parent="1">
          <mxGeometry x="380" y="550" width="40" height="60" as="geometry" />
        </mxCell>
        <mxCell id="LXi4oykiWdBbcrS9zuZF-4" value="" style="endArrow=classic;html=1;rounded=0;" edge="1" parent="1" target="LXi4oykiWdBbcrS9zuZF-2">
          <mxGeometry width="50" height="50" relative="1" as="geometry">
            <mxPoint x="420" y="430" as="sourcePoint" />
            <mxPoint x="440" y="540" as="targetPoint" />
          </mxGeometry>
        </mxCell>
        <mxCell id="LXi4oykiWdBbcrS9zuZF-5" value="Root" style="text;html=1;strokeColor=none;fillColor=none;align=center;verticalAlign=middle;whiteSpace=wrap;rounded=0;" vertex="1" parent="1">
          <mxGeometry x="410" y="410" width="60" height="30" as="geometry" />
        </mxCell>
        <mxCell id="LXi4oykiWdBbcrS9zuZF-6" value="" style="rounded=0;whiteSpace=wrap;html=1;fillColor=#dae8fc;strokeColor=#6c8ebf;" vertex="1" parent="1">
          <mxGeometry x="200" y="640" width="40" height="60" as="geometry" />
        </mxCell>
        <mxCell id="LXi4oykiWdBbcrS9zuZF-7" value="" style="rounded=0;whiteSpace=wrap;html=1;fillColor=#ffe6cc;strokeColor=#d79b00;" vertex="1" parent="1">
          <mxGeometry x="290" y="640" width="40" height="60" as="geometry" />
        </mxCell>
        <mxCell id="LXi4oykiWdBbcrS9zuZF-8" value="" style="rounded=0;whiteSpace=wrap;html=1;fillColor=#dae8fc;strokeColor=#6c8ebf;" vertex="1" parent="1">
          <mxGeometry x="354" y="640" width="36" height="60" as="geometry" />
        </mxCell>
        <mxCell id="LXi4oykiWdBbcrS9zuZF-9" value="" style="rounded=0;whiteSpace=wrap;html=1;fillColor=#ffe6cc;strokeColor=#d79b00;" vertex="1" parent="1">
          <mxGeometry x="440" y="640" width="36" height="60" as="geometry" />
        </mxCell>
        <mxCell id="LXi4oykiWdBbcrS9zuZF-10" value="" style="rounded=0;whiteSpace=wrap;html=1;fillColor=#dae8fc;strokeColor=#6c8ebf;" vertex="1" parent="1">
          <mxGeometry x="560" y="640" width="36" height="60" as="geometry" />
        </mxCell>
        <mxCell id="LXi4oykiWdBbcrS9zuZF-11" value="" style="endArrow=classic;html=1;rounded=0;" edge="1" parent="1">
          <mxGeometry width="50" height="50" relative="1" as="geometry">
            <mxPoint x="390" y="590" as="sourcePoint" />
            <mxPoint x="390" y="630" as="targetPoint" />
          </mxGeometry>
        </mxCell>
        <mxCell id="LXi4oykiWdBbcrS9zuZF-13" value="" style="rounded=0;whiteSpace=wrap;html=1;fillColor=#ffe6cc;strokeColor=#d79b00;" vertex="1" parent="1">
          <mxGeometry x="120" y="760" width="40" height="60" as="geometry" />
        </mxCell>
        <mxCell id="LXi4oykiWdBbcrS9zuZF-14" value="" style="rounded=0;whiteSpace=wrap;html=1;fillColor=#dae8fc;strokeColor=#6c8ebf;" vertex="1" parent="1">
          <mxGeometry x="190" y="760" width="40" height="60" as="geometry" />
        </mxCell>
        <mxCell id="LXi4oykiWdBbcrS9zuZF-16" value="" style="rounded=0;whiteSpace=wrap;html=1;fillColor=#ffe6cc;strokeColor=#d79b00;" vertex="1" parent="1">
          <mxGeometry x="560" y="760" width="36" height="60" as="geometry" />
        </mxCell>
        <mxCell id="LXi4oykiWdBbcrS9zuZF-17" value="" style="rounded=0;whiteSpace=wrap;html=1;fillColor=#dae8fc;strokeColor=#6c8ebf;" vertex="1" parent="1">
          <mxGeometry x="200" y="700" width="40" height="40" as="geometry" />
        </mxCell>
        <mxCell id="LXi4oykiWdBbcrS9zuZF-18" value="" style="endArrow=classic;html=1;rounded=0;" edge="1" parent="1" source="LXi4oykiWdBbcrS9zuZF-17">
          <mxGeometry width="50" height="50" relative="1" as="geometry">
            <mxPoint x="390" y="590" as="sourcePoint" />
            <mxPoint x="170" y="750" as="targetPoint" />
          </mxGeometry>
        </mxCell>
        <mxCell id="LXi4oykiWdBbcrS9zuZF-19" value="" style="endArrow=classic;html=1;rounded=0;entryX=0.25;entryY=0;entryDx=0;entryDy=0;" edge="1" parent="1" target="LXi4oykiWdBbcrS9zuZF-16">
          <mxGeometry width="50" height="50" relative="1" as="geometry">
            <mxPoint x="570" y="730" as="sourcePoint" />
            <mxPoint x="440" y="540" as="targetPoint" />
          </mxGeometry>
        </mxCell>
        <mxCell id="LXi4oykiWdBbcrS9zuZF-20" value="" style="rounded=0;whiteSpace=wrap;html=1;fillColor=#dae8fc;strokeColor=#6c8ebf;" vertex="1" parent="1">
          <mxGeometry x="560" y="700" width="36" height="40" as="geometry" />
        </mxCell>
        <mxCell id="LXi4oykiWdBbcrS9zuZF-21" value="" style="rounded=0;whiteSpace=wrap;html=1;fillColor=#dae8fc;strokeColor=#6c8ebf;" vertex="1" parent="1">
          <mxGeometry x="354" y="700" width="36" height="40" as="geometry" />
        </mxCell>
        <mxCell id="LXi4oykiWdBbcrS9zuZF-22" value="" style="endArrow=classic;html=1;rounded=0;exitX=0.5;exitY=1;exitDx=0;exitDy=0;" edge="1" parent="1" source="LXi4oykiWdBbcrS9zuZF-21">
          <mxGeometry width="50" height="50" relative="1" as="geometry">
            <mxPoint x="390" y="590" as="sourcePoint" />
            <mxPoint x="380" y="760" as="targetPoint" />
          </mxGeometry>
        </mxCell>
        <mxCell id="LXi4oykiWdBbcrS9zuZF-23" value="" style="rounded=0;whiteSpace=wrap;html=1;fillColor=#ffe6cc;strokeColor=#d79b00;" vertex="1" parent="1">
          <mxGeometry x="360" y="760" width="36" height="60" as="geometry" />
        </mxCell>
        <mxCell id="LXi4oykiWdBbcrS9zuZF-25" value="" style="rounded=0;whiteSpace=wrap;html=1;fillColor=#dae8fc;strokeColor=#6c8ebf;" vertex="1" parent="1">
          <mxGeometry x="190" y="820" width="40" height="40" as="geometry" />
        </mxCell>
        <mxCell id="LXi4oykiWdBbcrS9zuZF-26" value="" style="endArrow=classic;html=1;rounded=0;entryX=0.25;entryY=0;entryDx=0;entryDy=0;" edge="1" parent="1" target="LXi4oykiWdBbcrS9zuZF-6">
          <mxGeometry width="50" height="50" relative="1" as="geometry">
            <mxPoint x="390" y="590" as="sourcePoint" />
            <mxPoint x="440" y="540" as="targetPoint" />
          </mxGeometry>
        </mxCell>
        <mxCell id="LXi4oykiWdBbcrS9zuZF-27" value="" style="endArrow=classic;html=1;rounded=0;entryX=0.75;entryY=0;entryDx=0;entryDy=0;" edge="1" parent="1" target="LXi4oykiWdBbcrS9zuZF-7">
          <mxGeometry width="50" height="50" relative="1" as="geometry">
            <mxPoint x="390" y="590" as="sourcePoint" />
            <mxPoint x="440" y="540" as="targetPoint" />
          </mxGeometry>
        </mxCell>
        <mxCell id="LXi4oykiWdBbcrS9zuZF-28" value="" style="endArrow=classic;html=1;rounded=0;entryX=0.25;entryY=0;entryDx=0;entryDy=0;" edge="1" parent="1" target="LXi4oykiWdBbcrS9zuZF-9">
          <mxGeometry width="50" height="50" relative="1" as="geometry">
            <mxPoint x="390" y="590" as="sourcePoint" />
            <mxPoint x="440" y="540" as="targetPoint" />
          </mxGeometry>
        </mxCell>
        <mxCell id="LXi4oykiWdBbcrS9zuZF-29" value="" style="endArrow=classic;html=1;rounded=0;entryX=0;entryY=0;entryDx=0;entryDy=0;" edge="1" parent="1" target="LXi4oykiWdBbcrS9zuZF-10">
          <mxGeometry width="50" height="50" relative="1" as="geometry">
            <mxPoint x="390" y="590" as="sourcePoint" />
            <mxPoint x="440" y="540" as="targetPoint" />
          </mxGeometry>
        </mxCell>
        <mxCell id="LXi4oykiWdBbcrS9zuZF-30" value="" style="endArrow=classic;html=1;rounded=0;exitX=0.25;exitY=1;exitDx=0;exitDy=0;entryX=0.5;entryY=0;entryDx=0;entryDy=0;" edge="1" parent="1" source="LXi4oykiWdBbcrS9zuZF-17" target="LXi4oykiWdBbcrS9zuZF-14">
          <mxGeometry width="50" height="50" relative="1" as="geometry">
            <mxPoint x="390" y="590" as="sourcePoint" />
            <mxPoint x="440" y="540" as="targetPoint" />
          </mxGeometry>
        </mxCell>
        <mxCell id="LXi4oykiWdBbcrS9zuZF-31" value="" style="endArrow=classic;html=1;rounded=0;" edge="1" parent="1" source="LXi4oykiWdBbcrS9zuZF-25">
          <mxGeometry width="50" height="50" relative="1" as="geometry">
            <mxPoint x="390" y="690" as="sourcePoint" />
            <mxPoint x="210" y="910" as="targetPoint" />
          </mxGeometry>
        </mxCell>
        <mxCell id="LXi4oykiWdBbcrS9zuZF-32" value="" style="rounded=0;whiteSpace=wrap;html=1;fillColor=#ffe6cc;strokeColor=#d79b00;" vertex="1" parent="1">
          <mxGeometry x="200" y="910" width="36" height="60" as="geometry" />
        </mxCell>
        <mxCell id="LXi4oykiWdBbcrS9zuZF-34" value="D" style="rounded=0;whiteSpace=wrap;html=1;fillColor=#dae8fc;strokeColor=#6c8ebf;" vertex="1" parent="1">
          <mxGeometry x="640" y="760" width="40" height="60" as="geometry" />
        </mxCell>
        <mxCell id="LXi4oykiWdBbcrS9zuZF-35" value="P" style="rounded=0;whiteSpace=wrap;html=1;fillColor=#dae8fc;strokeColor=#6c8ebf;" vertex="1" parent="1">
          <mxGeometry x="640" y="820" width="40" height="60" as="geometry" />
        </mxCell>
        <mxCell id="LXi4oykiWdBbcrS9zuZF-36" value="" style="rounded=0;whiteSpace=wrap;html=1;fillColor=#dae8fc;strokeColor=#6c8ebf;" vertex="1" parent="1">
          <mxGeometry x="460" y="910" width="40" height="60" as="geometry" />
        </mxCell>
        <mxCell id="LXi4oykiWdBbcrS9zuZF-37" value="" style="rounded=0;whiteSpace=wrap;html=1;fillColor=#ffe6cc;strokeColor=#d79b00;" vertex="1" parent="1">
          <mxGeometry x="550" y="910" width="40" height="60" as="geometry" />
        </mxCell>
        <mxCell id="LXi4oykiWdBbcrS9zuZF-38" value="" style="rounded=0;whiteSpace=wrap;html=1;fillColor=#dae8fc;strokeColor=#6c8ebf;" vertex="1" parent="1">
          <mxGeometry x="614" y="910" width="36" height="60" as="geometry" />
        </mxCell>
        <mxCell id="LXi4oykiWdBbcrS9zuZF-39" value="" style="rounded=0;whiteSpace=wrap;html=1;fillColor=#ffe6cc;strokeColor=#d79b00;" vertex="1" parent="1">
          <mxGeometry x="700" y="910" width="36" height="60" as="geometry" />
        </mxCell>
        <mxCell id="LXi4oykiWdBbcrS9zuZF-40" value="" style="endArrow=classic;html=1;rounded=0;" edge="1" parent="1">
          <mxGeometry width="50" height="50" relative="1" as="geometry">
            <mxPoint x="650" y="860" as="sourcePoint" />
            <mxPoint x="650" y="900" as="targetPoint" />
          </mxGeometry>
        </mxCell>
        <mxCell id="LXi4oykiWdBbcrS9zuZF-41" value="" style="endArrow=classic;html=1;rounded=0;entryX=0.25;entryY=0;entryDx=0;entryDy=0;" edge="1" parent="1" target="LXi4oykiWdBbcrS9zuZF-36">
          <mxGeometry width="50" height="50" relative="1" as="geometry">
            <mxPoint x="650" y="860" as="sourcePoint" />
            <mxPoint x="700" y="810" as="targetPoint" />
          </mxGeometry>
        </mxCell>
        <mxCell id="LXi4oykiWdBbcrS9zuZF-42" value="" style="endArrow=classic;html=1;rounded=0;entryX=0.75;entryY=0;entryDx=0;entryDy=0;" edge="1" parent="1" target="LXi4oykiWdBbcrS9zuZF-37">
          <mxGeometry width="50" height="50" relative="1" as="geometry">
            <mxPoint x="650" y="860" as="sourcePoint" />
            <mxPoint x="700" y="810" as="targetPoint" />
          </mxGeometry>
        </mxCell>
        <mxCell id="LXi4oykiWdBbcrS9zuZF-43" value="" style="endArrow=classic;html=1;rounded=0;entryX=0.25;entryY=0;entryDx=0;entryDy=0;" edge="1" parent="1" target="LXi4oykiWdBbcrS9zuZF-39">
          <mxGeometry width="50" height="50" relative="1" as="geometry">
            <mxPoint x="650" y="860" as="sourcePoint" />
            <mxPoint x="700" y="810" as="targetPoint" />
          </mxGeometry>
        </mxCell>
        <mxCell id="LXi4oykiWdBbcrS9zuZF-44" value="" style="endArrow=classic;html=1;rounded=0;entryX=0.25;entryY=0;entryDx=0;entryDy=0;exitX=1;exitY=0.75;exitDx=0;exitDy=0;" edge="1" parent="1" source="LXi4oykiWdBbcrS9zuZF-20" target="LXi4oykiWdBbcrS9zuZF-34">
          <mxGeometry width="50" height="50" relative="1" as="geometry">
            <mxPoint x="390" y="680" as="sourcePoint" />
            <mxPoint x="440" y="630" as="targetPoint" />
          </mxGeometry>
        </mxCell>
      </root>
    </mxGraphModel>
  </diagram>
</mxfile>
